<?xml version="1.0" encoding="UTF-8"?>
<svg id="Capa_1" data-name="Capa 1" xmlns="http://www.w3.org/2000/svg" viewBox="0 0 100.04 100.04">
  <defs>
    <style>
      .cls-1 {
        fill: #437239;
      }

      .cls-1, .cls-2 {
        stroke-width: 0px;
      }

      .cls-2 {
        fill: #fff;
      }
    </style>
  </defs>
  <circle class="cls-2" cx="50.02" cy="50.02" r="50.02"/>
  <g>
    <path class="cls-1" d="M65.51,31.66c-1.87,0-3.39,1.52-3.39,3.39s1.52,3.39,3.39,3.39,3.39-1.52,3.39-3.39-1.52-3.39-3.39-3.39Z"/>
    <path class="cls-1" d="M50.44,36.01c-7.85,0-14.24,6.39-14.24,14.24s6.39,14.24,14.24,14.24,14.24-6.39,14.24-14.24-6.39-14.24-14.24-14.24ZM50.44,59.38c-5.03,0-9.12-4.09-9.12-9.12s4.09-9.12,9.12-9.12,9.12,4.09,9.12,9.12-4.09,9.12-9.12,9.12Z"/>
    <path class="cls-1" d="M61.74,79.18h-23.09c-9.58,0-17.37-7.79-17.37-17.37v-23.09c0-9.58,7.79-17.37,17.37-17.37h23.09c9.58,0,17.37,7.79,17.37,17.37v23.09c0,9.58-7.79,17.37-17.37,17.37ZM38.65,26.78c-6.58,0-11.93,5.35-11.93,11.93v23.09c0,6.58,5.35,11.93,11.93,11.93h23.09c6.58,0,11.93-5.35,11.93-11.93v-23.09c0-6.58-5.35-11.93-11.93-11.93h-23.09Z"/>
  </g>
</svg>