<?xml version="1.0" encoding="UTF-8"?>
<svg id="Capa_1" data-name="Capa 1" xmlns="http://www.w3.org/2000/svg" viewBox="0 0 100.04 100.04">
  <defs>
    <style>
      .cls-1 {
        fill: #437239;
      }

      .cls-1, .cls-2 {
        stroke-width: 0px;
      }

      .cls-2 {
        fill: #fff;
      }
    </style>
  </defs>
  <circle class="cls-2" cx="50.02" cy="50.02" r="50.02"/>
  <g>
    <path class="cls-1" d="M51.77,45.91c2.24-2.88,4.96-4.66,8.39-4.95,3.45-.29,6.95-.48,10.12,1.41,3.99,2.37,6.14,5.9,6.2,10.49.11,7.62.03,15.25.05,22.87,0,.73-.27.93-.96.93-2.92-.03-5.85-.03-8.77,0-.7,0-.87-.25-.87-.91.02-5.9.01-11.8,0-17.71,0-1.43-.24-2.82-.94-4.1-2.33-4.28-8.51-4.66-11.62-.73-1.07,1.36-1.61,2.89-1.61,4.62,0,5.96-.01,11.91.02,17.87,0,.78-.25.96-.97.95-2.9-.03-5.79-.03-8.69,0-.71,0-.94-.19-.93-.92.02-11.18.02-22.35,0-33.53,0-.77.19-1.04,1-1.03,2.87.05,5.74.05,8.61,0,.81-.01,1.03.25.99,1.02-.06,1.17-.02,2.34-.02,3.7Z"/>
    <path class="cls-1" d="M35.21,58.9c0,5.6-.01,11.2.02,16.8,0,.76-.22.97-.97.96-2.92-.04-5.85-.03-8.77,0-.72,0-1-.17-1-.96.02-11.2.02-22.4,0-33.6,0-.64.15-.93.87-.92,3,.03,6.01.03,9.01,0,.72,0,.85.28.85.92-.02,5.6-.01,11.2-.01,16.8Z"/>
    <path class="cls-1" d="M36.22,29.82c0,3.52-2.88,6.46-6.36,6.48-3.46.02-6.37-2.93-6.37-6.46,0-3.53,2.85-6.46,6.27-6.46,3.57,0,6.46,2.88,6.46,6.45Z"/>
  </g>
</svg>