<?xml version="1.0" encoding="UTF-8"?>
<svg id="Capa_1" data-name="Capa 1" xmlns="http://www.w3.org/2000/svg" xmlns:xlink="http://www.w3.org/1999/xlink" viewBox="0 0 354 354">
  <defs>
    <style>
      .cls-1 {
        fill-rule: evenodd;
      }

      .cls-1, .cls-2, .cls-3 {
        stroke-width: 0px;
      }

      .cls-1, .cls-3 {
        fill: #fff;
      }

      .cls-2 {
        fill: #437239;
        filter: url(#drop-shadow-2);
      }
    </style>
    <filter id="drop-shadow-2" filterUnits="userSpaceOnUse">
      <feOffset dx="7" dy="7"/>
      <feGaussianBlur result="blur" stdDeviation="5"/>
      <feFlood flood-color="#1d1d1b" flood-opacity=".33"/>
      <feComposite in2="blur" operator="in"/>
      <feComposite in="SourceGraphic"/>
    </filter>
  </defs>
  <circle class="cls-2" cx="170" cy="170" r="162"/>
  <g>
    <path class="cls-1" d="M77.87,242.99c-31.69-41.58-16.31-106.57,34.22-144.66,50.53-38.1,117.59-35.25,149.28,6.33,31.68,41.58,16.31,106.57-34.22,144.66-50.53,38.09-117.59,35.25-149.28-6.33M77.8,243.05c28.41,37.29,92.79,36.64,143.3-1.44,50.52-38.08,68.54-99.55,40.13-136.84-28.41-37.29-92.79-36.64-143.3,1.44-50.52,38.08-68.54,99.55-40.13,136.84M77.91,242.96c17.95,23.56,73.76,11.73,124.25-26.33,50.48-38.06,77.02-88.31,59.07-111.87-17.95-23.56-73.76-11.73-124.25,26.33-50.48,38.06-77.02,88.31-59.07,111.87M77.91,242.96c13.79,18.09,66.2,1.81,116.69-36.25,50.48-38.06,80.42-83.85,66.63-101.94-13.79-18.09-66.2-1.81-116.69,36.25-50.49,38.06-80.42,83.86-66.63,101.95M79.86,245.52c.57.75,1.64.92,2.37.37l180.37-135.97c.73-.55.86-1.62.29-2.37l-3.9-5.12c-.58-.75-1.64-.92-2.37-.37L76.24,238.03c-.73.55-.86,1.62-.29,2.37l3.9,5.12ZM98.72,81.58c-50.66,38.19-60.06,111.22-20.93,162.57,39.13,51.35,112.36,62.09,163.02,23.9,50.66-38.19,60.06-111.22,20.93-162.57-39.13-51.35-112.36-62.09-163.02-23.9M98.73,81.6c-41.05,30.95-42.59,98.12-3.42,149.53,39.17,51.41,104.6,68.09,145.66,37.14,41.06-30.95,42.6-98.12,3.42-149.53-39.17-51.41-104.6-68.09-145.66-37.14M98.68,81.52c-36.82,27.75-34.91,92.3,4.24,143.69,39.16,51.39,101.12,70.66,137.94,42.9,36.82-27.76,34.91-92.3-4.24-143.69-39.16-51.39-101.12-70.66-137.94-42.9M98.76,81.64c-23.26,17.54-10.31,73.72,28.82,125.08,39.13,51.36,90.02,78.94,113.28,61.4,23.26-17.53,10.31-73.72-28.82-125.07-39.13-51.36-90.02-78.94-113.28-61.41M98.76,81.64c-17.86,13.47-.52,66.34,38.61,117.69,39.13,51.35,85.62,82.26,103.48,68.79,17.86-13.47.52-66.34-38.61-117.69-39.13-51.36-85.62-82.26-103.48-68.79M96.24,83.54c-.74.56-.89,1.63-.32,2.37l139.81,183.48c.57.74,1.64.89,2.38.33l5.06-3.81c.74-.56.89-1.63.32-2.37L103.67,80.06c-.57-.74-1.64-.89-2.38-.33l-5.06,3.81Z"/>
    <path class="cls-3" d="M63.11,273.14l4.58-5.32.33.34c-1.03,1.94-1.47,3.66-1.31,5.15.16,1.49.81,2.83,1.94,4,.95.98,2.04,1.62,3.3,1.92,1.25.3,2.63.14,4.13-.49,1.5-.62,3.04-1.74,4.62-3.35,1.3-1.33,2.23-2.69,2.77-4.09.54-1.4.66-2.79.34-4.18-.32-1.38-1.01-2.63-2.08-3.73-.92-.96-1.94-1.61-3.05-1.94-1.11-.33-2.68-.33-4.72,0l-.11-.56c2-.56,3.77-.65,5.32-.26,1.55.39,2.98,1.26,4.29,2.62,2.36,2.46,3.31,5.26,2.83,8.41-.35,2.34-1.42,4.43-3.21,6.24-1.44,1.46-3.08,2.47-4.92,3.04-1.84.56-3.66.6-5.44.11-1.78-.49-3.33-1.42-4.66-2.8-1.03-1.07-1.79-2.39-2.28-3.95-.14-.46-.27-.76-.4-.89-.19-.2-.42-.3-.7-.31-.37,0-.77.14-1.19.4l-.37-.38Z"/>
    <path class="cls-3" d="M57.7,263.44l6.5-4.82-2.61-3.71c-.68-.96-1.27-1.5-1.78-1.62-.68-.16-1.5.09-2.47.74l-.32-.46,5.73-4.24.32.46c-.72.71-1.15,1.21-1.29,1.49-.18.36-.23.77-.15,1.23.08.46.36,1.04.86,1.75l2.61,3.71,5.42-4.02c.73-.54,1.15-.9,1.26-1.09.11-.18.16-.39.13-.63-.02-.23-.2-.58-.53-1.05l-2.01-2.87c-.67-.95-1.22-1.6-1.66-1.94-.43-.34-.98-.56-1.64-.68-.86-.14-1.99-.11-3.38.1l-.35-.5,5.15-1.6,9.15,13.02-.45.33-.42-.6c-.28-.4-.64-.71-1.08-.93-.32-.17-.64-.21-.96-.11-.33.1-.89.44-1.69,1.04l-10.69,7.92c-1.04.77-1.61,1.36-1.7,1.75-.11.54.08,1.16.57,1.86l.42.6-.45.33-9.15-13.02,3.47-2.86.34.49c-.74.81-1.2,1.45-1.38,1.9-.17.45-.2.95-.08,1.49.11.42.46,1.05,1.05,1.89l3.26,4.64Z"/>
    <path class="cls-3" d="M48.38,252.1l-2.46-5.06,8.07-18.38-10.46,5.37c-1.12.57-1.75,1.06-1.9,1.46-.21.53-.14,1.16.22,1.9l.31.64-.5.26-3.15-6.49.5-.25.32.66c.38.79.89,1.23,1.51,1.32.38.05,1.08-.18,2.1-.7l15.3-7.85.24.49-8.64,19.79,11.17-5.73c1.12-.57,1.75-1.05,1.91-1.44.2-.54.13-1.18-.22-1.9l-.32-.66.5-.25,3.15,6.49-.5.25-.31-.65c-.39-.8-.89-1.24-1.52-1.33-.38-.06-1.08.18-2.1.7l-12.62,6.48c-.35.86-.56,1.47-.62,1.85-.06.38-.05.88.05,1.51.05.31.21.73.47,1.27l-.5.25Z"/>
    <path class="cls-3" d="M32.23,211.61l4.47-1.68.17.56c-.77.36-1.29.7-1.58.99-.46.48-.74,1.01-.85,1.6-.11.59-.04,1.29.21,2.12l.85,2.8,14.79-4.75c1.19-.38,1.89-.75,2.11-1.11.29-.5.31-1.14.08-1.91l-.21-.69.53-.17,2.57,8.43-.53.17-.21-.7c-.25-.84-.69-1.36-1.29-1.55-.37-.12-1.1,0-2.18.34l-14.79,4.75.73,2.39c.28.93.55,1.57.8,1.92.34.45.82.77,1.44.97.62.2,1.38.19,2.28-.02l.17.56-4.61,1.22-4.94-16.24Z"/>
    <path class="cls-3" d="M48.29,184.17l.81,5.5-8.35,8.44c.1.51.17.93.22,1.26.02.13.04.27.05.43.02.15.03.31.05.48l5.83-.91c1.26-.2,2.03-.46,2.29-.79.38-.45.51-1.06.39-1.83l-.12-.8.55-.09,1.3,8.83-.55.08-.12-.77c-.13-.87-.5-1.45-1.1-1.74-.34-.16-1.08-.16-2.22.02l-12.96,2.02c-1.26.2-2.02.46-2.29.79-.37.46-.51,1.08-.39,1.86l.11.78-.55.09-1.11-7.5c-.32-2.19-.41-3.83-.25-4.91.16-1.08.6-2.06,1.32-2.91.73-.85,1.67-1.37,2.82-1.55,1.23-.19,2.36.05,3.39.74,1.03.69,1.86,1.86,2.49,3.54l5.12-5.15c1.18-1.18,1.93-2.15,2.26-2.92.33-.77.47-1.72.42-2.86l.55-.08ZM40.14,200.41c-.03-.19-.05-.36-.07-.5-.02-.14-.03-.26-.05-.35-.29-1.96-.92-3.38-1.9-4.25-.98-.87-2.1-1.2-3.39-1-1.25.2-2.21.76-2.87,1.68-.66.93-.9,2.06-.7,3.38.09.59.3,1.37.64,2.34l8.34-1.3Z"/>
    <path class="cls-3" d="M27.76,173.38c.05-2.71,1.09-5.03,3.12-6.98,2.03-1.94,4.55-2.89,7.54-2.84,3.08.06,5.62,1.1,7.62,3.14,2,2.04,2.97,4.47,2.93,7.31-.05,2.87-1.08,5.26-3.1,7.17-2.02,1.92-4.6,2.85-7.75,2.79-3.22-.06-5.83-1.23-7.82-3.52-1.73-1.99-2.57-4.35-2.53-7.07M28.85,173.7c-.03,1.86.61,3.37,1.94,4.52,1.65,1.43,4.09,2.18,7.32,2.24,3.31.06,5.87-.62,7.68-2.04,1.37-1.09,2.08-2.55,2.11-4.39.03-1.96-.68-3.58-2.15-4.89-1.46-1.3-3.8-1.98-7-2.04-3.47-.06-6.07.59-7.8,1.96-1.37,1.1-2.08,2.65-2.11,4.64"/>
    <path class="cls-3" d="M31.33,148.42l-.54-.12,1.84-8.73.54.12-.16.74c-.18.83-.06,1.49.33,1.98.26.31.99.6,2.18.86l9.69,2.16c1.49.33,2.67.77,3.52,1.31.86.54,1.54,1.3,2.05,2.27.51.98.65,2.04.4,3.2-.2.94-.58,1.63-1.15,2.07-.57.44-1.14.59-1.73.46-.48-.11-.81-.31-1-.62-.23-.4-.3-.82-.21-1.26.07-.32.23-.59.49-.8.26-.21.87-.41,1.84-.6.57-.11.9-.35.98-.71.06-.27-.05-.56-.32-.87-.27-.31-.82-.55-1.64-.73l-13.54-3.01c-1-.22-1.68-.31-2.03-.25-.26.05-.52.21-.76.49-.32.38-.54.81-.64,1.29l-.15.73Z"/>
    <path class="cls-3" d="M38.39,123.35l-.52-.19,2.44-6.94.52.19-.26.74c-.27.77-.17,1.48.32,2.13.22.31.86.66,1.92,1.06l7.74,2.87c1.91.71,3.33,1.46,4.25,2.24.92.78,1.55,1.88,1.91,3.3.35,1.42.18,3.12-.51,5.08-.75,2.14-1.69,3.63-2.8,4.47-1.11.84-2.36,1.26-3.74,1.27-.94,0-2.56-.43-4.86-1.28l-7.46-2.77c-1.17-.43-2-.55-2.48-.36-.48.19-.85.66-1.12,1.41l-.26.74-.52-.19,2.98-8.47.52.19-.26.75c-.29.81-.24,1.48.13,2.01.25.37.91.75,1.98,1.14l8.31,3.09c.74.28,1.61.52,2.62.74,1,.21,1.84.24,2.5.07.66-.17,1.29-.53,1.88-1.09.59-.56,1.06-1.34,1.41-2.34.45-1.28.58-2.53.39-3.74-.19-1.21-.64-2.16-1.36-2.85-.72-.69-2.09-1.41-4.12-2.16l-7.72-2.87c-1.19-.44-1.98-.58-2.38-.42-.55.22-.95.7-1.21,1.44l-.26.74Z"/>
    <path class="cls-3" d="M69.4,105.25l-2.66,4.85-11.63,1.35c-.23.47-.43.84-.58,1.13-.06.12-.13.24-.21.37-.08.13-.16.27-.25.4l5.13,2.97c1.11.64,1.87.92,2.28.83.57-.12,1.04-.51,1.41-1.19l.39-.71.48.28-4.27,7.78-.48-.28.37-.68c.42-.77.48-1.46.17-2.07-.17-.34-.75-.81-1.76-1.39l-11.41-6.61c-1.11-.65-1.87-.92-2.28-.83-.57.13-1.05.53-1.43,1.22l-.37.68-.48-.28,3.63-6.61c1.06-1.93,1.97-3.27,2.75-4.03.78-.75,1.71-1.24,2.79-1.45,1.08-.21,2.13-.02,3.15.57,1.09.63,1.83,1.54,2.23,2.73.4,1.19.34,2.64-.16,4.36l7.13-.81c1.63-.18,2.81-.47,3.53-.86.72-.39,1.4-1.06,2.05-1.99l.48.28ZM53.24,112.88c.09-.17.18-.31.25-.44.07-.12.13-.22.18-.31.95-1.73,1.3-3.25,1.06-4.55-.25-1.3-.94-2.28-2.06-2.93-1.1-.64-2.2-.8-3.27-.5-1.08.31-1.94,1.05-2.58,2.22-.28.52-.59,1.27-.91,2.24l7.35,4.26Z"/>
    <path class="cls-3" d="M52.54,82.83l1.55,6.79-.3.42-3.23-4.44,1.98-2.77ZM74.35,98.02l.45.34-5.15,7.2-.45-.34.43-.59c.5-.7.66-1.35.49-1.96-.12-.39-.66-.96-1.64-1.7l-10.56-7.97c-.83-.62-1.41-.98-1.76-1.08-.26-.07-.55-.03-.88.12-.45.22-.82.52-1.1.92l-.42.6-.45-.34,5.14-7.2.45.33-.43.61c-.49.68-.65,1.33-.48,1.94.11.4.66.97,1.64,1.71l10.56,7.97c.83.63,1.41.98,1.76,1.08.26.07.56.03.89-.13.45-.21.81-.51,1.09-.91l.43-.61Z"/>
    <path class="cls-3" d="M74.91,97.58l-.4-.39.53-.57c.59-.64.81-1.29.66-1.94-.09-.4-.55-1-1.38-1.81l-9.49-9.28c-.92-.9-1.59-1.36-2.01-1.37-.59-.02-1.14.25-1.67.82l-.53.57-.4-.39,5.69-6.15c2.09-2.26,3.93-3.73,5.52-4.42,1.59-.69,3.3-.82,5.12-.4,1.83.42,3.5,1.38,5.03,2.87,2.04,2,3.16,4.31,3.35,6.93.2,2.93-1.05,5.86-3.77,8.79l-6.25,6.75ZM77.84,92.23c1.08-.74,1.91-1.44,2.5-2.07,1.59-1.72,2.33-3.73,2.2-6.01-.13-2.29-1.2-4.41-3.21-6.39-2.03-1.98-4.16-2.98-6.38-2.99-2.22,0-4.16.87-5.81,2.66-.62.67-1.22,1.53-1.8,2.59l12.49,12.22Z"/>
    <path class="cls-3" d="M96.57,75.68l.35.44-6.74,5.63-.35-.44.56-.47c.65-.54.97-1.13.95-1.77-.01-.41-.41-1.1-1.17-2.07l-8.27-10.45c-.65-.82-1.13-1.32-1.43-1.49-.24-.14-.53-.17-.88-.12-.49.09-.92.3-1.29.61l-.56.47-.35-.44,6.74-5.63.35.44-.57.47c-.64.54-.96,1.12-.94,1.76,0,.42.4,1.11,1.16,2.08l8.27,10.45c.65.82,1.13,1.32,1.43,1.5.24.13.53.17.89.1.48-.09.91-.29,1.28-.6l.57-.47Z"/>
    <path class="cls-3" d="M101.4,47.6l4.06,5.74-.39.25c-1.62-1.46-3.16-2.27-4.61-2.43-1.45-.16-2.86.19-4.22,1.07-1.14.74-1.99,1.7-2.55,2.89-.56,1.19-.7,2.61-.43,4.25.27,1.64.99,3.43,2.18,5.36.98,1.59,2.07,2.82,3.29,3.67,1.22.85,2.51,1.26,3.9,1.24,1.38-.02,2.72-.45,4-1.28,1.11-.72,1.95-1.6,2.5-2.64.55-1.04.89-2.62,1.02-4.74h.55c.1,2.13-.2,3.93-.9,5.4-.7,1.47-1.84,2.71-3.42,3.73-2.84,1.84-5.71,2.18-8.6,1.02-2.15-.86-3.9-2.38-5.23-4.57-1.08-1.76-1.68-3.63-1.82-5.6-.13-1.97.22-3.8,1.07-5.48.85-1.68,2.07-3.04,3.67-4.07,1.24-.8,2.66-1.28,4.25-1.43.47-.04.78-.11.93-.2.23-.15.38-.36.44-.63.08-.38.03-.8-.13-1.28l.44-.29Z"/>
    <path class="cls-3" d="M115.78,40.79c2.43-1.03,4.92-.98,7.47.15,2.55,1.14,4.4,3.13,5.54,5.97,1.18,2.92,1.26,5.74.24,8.43-1.02,2.7-2.8,4.59-5.35,5.67-2.58,1.1-5.13,1.08-7.64-.06-2.51-1.14-4.38-3.2-5.58-6.19-1.23-3.06-1.23-5.98.02-8.78,1.08-2.42,2.85-4.16,5.3-5.2M115.93,41.94c-1.68.71-2.77,1.93-3.26,3.63-.62,2.13-.31,4.72.93,7.79,1.27,3.14,2.9,5.28,4.89,6.42,1.52.86,3.11.94,4.76.24,1.76-.75,2.93-2.07,3.51-3.97.58-1.9.25-4.37-.97-7.41-1.33-3.29-2.95-5.48-4.86-6.56-1.53-.86-3.19-.9-4.98-.14"/>
    <path class="cls-3" d="M149.56,52.12l.11.56-8.5,1.84-.11-.55.7-.15c.82-.18,1.36-.55,1.64-1.12.17-.37.13-1.17-.12-2.39l-2.7-13.17c-.21-1.03-.42-1.7-.61-2-.15-.23-.39-.4-.73-.52-.48-.15-.95-.17-1.42-.07l-.7.15-.12-.56,8.5-1.84.11.56-.72.16c-.81.18-1.35.55-1.62,1.12-.18.37-.14,1.17.11,2.4l2.7,13.17c.21,1.03.41,1.7.61,2,.15.23.4.4.75.51.47.15.94.17,1.41.07l.72-.16Z"/>
    <path class="cls-3" d="M147.68,31.49l5.49-.45,13.58,14.55-.94-11.98c-.1-1.28-.3-2.06-.6-2.35-.4-.4-1-.56-1.8-.5l-.7.06-.04-.57,7.04-.58.04.57-.72.06c-.85.07-1.44.39-1.76.95-.19.34-.24,1.1-.15,2.26l1.37,17.51-.54.04-14.64-15.62,1,12.79c.1,1.28.3,2.06.59,2.36.41.4,1.01.56,1.79.5l.72-.06.04.57-7.04.58-.04-.57.7-.06c.86-.07,1.46-.39,1.77-.95.19-.35.25-1.1.15-2.26l-1.13-14.44c-.64-.66-1.12-1.09-1.45-1.28-.32-.2-.78-.37-1.38-.52-.29-.07-.74-.08-1.32-.03l-.05-.57Z"/>
    <path class="cls-3" d="M190.3,31.25l-.16,4.89-.57-.05c-.04-.87-.14-1.49-.3-1.87-.26-.62-.64-1.09-1.13-1.41-.49-.32-1.15-.52-1.99-.59l-2.85-.24-1.26,15.87c-.1,1.28-.03,2.08.21,2.42.34.46.91.73,1.69.79l.7.06-.04.57-8.57-.72.05-.57.72.06c.85.07,1.48-.14,1.88-.65.24-.31.41-1.04.51-2.21l1.26-15.87-2.43-.2c-.94-.08-1.62-.07-2.03.04-.53.15-1,.49-1.41,1.01-.41.52-.69,1.25-.83,2.18l-.57-.05.63-4.85,16.5,1.38Z"/>
    <path class="cls-3" d="M199.51,34.3l-1.82,8.02,4.34,1.04c1.13.27,1.92.28,2.38.02.61-.34,1.07-1.08,1.39-2.22l.54.13-1.61,7.06-.54-.13c.09-1.02.1-1.69.02-2-.1-.39-.32-.73-.67-1.03-.35-.3-.94-.54-1.77-.74l-4.34-1.04-1.52,6.69c-.2.9-.29,1.45-.26,1.67.03.21.13.4.3.56.17.16.52.31,1.07.44l3.35.8c1.12.27,1.95.38,2.49.34.54-.04,1.1-.23,1.67-.59.74-.48,1.57-1.26,2.48-2.35l.58.14-2.86,4.68-15.22-3.65.13-.55.7.17c.47.11.93.1,1.4-.03.35-.09.61-.27.8-.57.18-.29.39-.93.61-1.92l3-13.18c.29-1.29.35-2.11.16-2.47-.26-.48-.8-.82-1.61-1.02l-.7-.17.13-.55,15.22,3.65-.79,4.5-.57-.14c.04-1.12-.02-1.9-.18-2.36-.16-.46-.45-.85-.89-1.18-.35-.24-1.02-.48-2-.72l-5.42-1.3Z"/>
    <path class="cls-3" d="M225.64,64.02l-5.02-2.08-2.82-11.67c-.48-.18-.87-.33-1.16-.45-.12-.05-.25-.11-.39-.17-.14-.06-.28-.13-.42-.2l-2.21,5.62c-.48,1.22-.64,2.03-.5,2.43.19.56.63.99,1.34,1.28l.73.3-.21.53-8.06-3.34.21-.53.71.29c.79.33,1.47.3,2.02-.09.31-.21.68-.87,1.11-1.98l4.9-12.48c.48-1.22.64-2.03.5-2.43-.2-.57-.65-1-1.36-1.29l-.71-.29.21-.53,6.85,2.84c2,.83,3.41,1.59,4.24,2.28.83.69,1.42,1.58,1.77,2.65.35,1.08.3,2.17-.14,3.28-.47,1.19-1.25,2.06-2.34,2.63-1.1.56-2.51.7-4.23.4l1.71,7.15c.39,1.64.82,2.8,1.29,3.49.47.68,1.2,1.29,2.18,1.83l-.21.53ZM216.18,48.55c.18.07.33.14.46.2.13.06.23.11.31.14,1.79.74,3.3.91,4.53.48,1.22-.42,2.08-1.25,2.56-2.48.47-1.21.49-2.34.05-3.4-.44-1.06-1.26-1.84-2.48-2.34-.54-.22-1.3-.43-2.28-.63l-3.16,8.04Z"/>
    <path class="cls-3" d="M234.95,45.49l4.69,2.96,2.63,19.98,6.11-10.25c.65-1.09.94-1.85.86-2.27-.1-.56-.48-1.06-1.16-1.49l-.6-.38.29-.49,6.02,3.79-.29.49-.61-.38c-.73-.46-1.38-.56-1.96-.3-.35.16-.83.74-1.42,1.74l-8.93,14.98-.46-.29-2.87-21.49-6.53,10.94c-.65,1.09-.94,1.85-.88,2.26.1.57.49,1.07,1.16,1.49l.61.39-.29.48-6.02-3.79.29-.48.6.38c.74.47,1.4.57,1.98.31.35-.16.83-.74,1.42-1.74l7.37-12.36c-.14-.92-.28-1.55-.43-1.91-.14-.35-.42-.77-.82-1.26-.2-.23-.55-.51-1.05-.83l.29-.48Z"/>
    <path class="cls-3" d="M257.9,79.15l-5.89-5.34-3.15,1.53c-.78.38-1.29.72-1.55,1.01-.2.24-.27.55-.21.93.06.38.44.93,1.13,1.65l-.37.43-4.79-4.34.37-.43c.73.46,1.27.69,1.62.67.7-.02,1.76-.39,3.2-1.1l16.4-8,.39.36-5.88,17.8c-.47,1.43-.67,2.46-.59,3.09.08.62.41,1.24,1,1.84l-.37.43-6-5.44.37-.42c.63.52,1.13.78,1.5.8.37.02.66-.1.87-.35.29-.34.6-1.01.93-2.01l1.01-3.08ZM258.32,78.01l2.85-8.65-8.07,3.91,5.23,4.74Z"/>
    <path class="cls-3" d="M286.59,90.68l-5.07,4.82-.29-.37c1.22-1.83,1.82-3.49,1.8-4.99-.02-1.5-.53-2.9-1.54-4.18-.84-1.08-1.88-1.83-3.09-2.26-1.21-.43-2.6-.41-4.15.06-1.56.47-3.2,1.42-4.93,2.85-1.43,1.18-2.48,2.44-3.16,3.79-.68,1.34-.92,2.71-.74,4.12.18,1.41.75,2.72,1.71,3.93.83,1.05,1.77,1.8,2.85,2.24,1.07.44,2.64.6,4.7.49l.06.56c-2.04.35-3.82.26-5.32-.29-1.5-.54-2.84-1.56-4.01-3.05-2.11-2.69-2.78-5.57-2-8.66.58-2.3,1.85-4.26,3.8-5.88,1.58-1.31,3.31-2.15,5.2-2.52,1.89-.37,3.69-.22,5.42.45,1.72.67,3.18,1.76,4.36,3.26.92,1.17,1.55,2.56,1.89,4.16.09.48.2.79.31.93.17.21.39.34.66.38.37.03.78-.06,1.22-.28l.33.42Z"/>
    <path class="cls-3" d="M276.58,113.28l-.47.3-4.6-7.57.47-.3.38.63c.44.73.97,1.13,1.59,1.19.4.04,1.11-.28,2.14-.94l11.12-7.13c.87-.56,1.41-.98,1.62-1.28.16-.22.23-.52.22-.88-.03-.51-.17-.98-.42-1.39l-.38-.63.47-.3,4.6,7.57-.47.3-.39-.64c-.44-.72-.97-1.11-1.58-1.18-.4-.04-1.12.26-2.15.93l-11.11,7.13c-.87.56-1.41.98-1.62,1.28-.16.22-.23.52-.21.9.02.5.16.97.42,1.38l.39.64Z"/>
    <path class="cls-3" d="M300.06,115.04c1.1,2.46,1.14,5.02.13,7.68-1.01,2.66-2.88,4.63-5.6,5.91-2.8,1.32-5.53,1.51-8.19.56-2.66-.94-4.57-2.71-5.72-5.28-1.16-2.61-1.24-5.22-.23-7.85,1.01-2.62,2.95-4.61,5.81-5.96,2.93-1.38,5.77-1.48,8.54-.3,2.4,1.02,4.15,2.77,5.26,5.25M298.95,115.24c-.76-1.69-1.98-2.76-3.66-3.21-2.09-.56-4.61-.14-7.54,1.24-3.01,1.42-5.03,3.17-6.06,5.26-.78,1.6-.8,3.23-.05,4.9.8,1.78,2.13,2.93,4,3.45,1.87.52,4.26.1,7.17-1.27,3.15-1.49,5.22-3.23,6.2-5.24.78-1.6.76-3.31-.05-5.12"/>
    <path class="cls-3" d="M304.98,127.6l1.4,5.47-11.55,16.3,11.31-3.06c1.21-.33,1.92-.67,2.15-1.03.31-.47.36-1.11.16-1.9l-.18-.7.54-.15,1.8,7.01-.53.14-.18-.71c-.22-.85-.62-1.39-1.22-1.61-.36-.14-1.1-.05-2.2.25l-16.53,4.48-.14-.54,12.39-17.56-12.08,3.27c-1.21.33-1.92.66-2.15,1.01-.31.49-.36,1.12-.16,1.9l.18.72-.54.15-1.8-7.01.53-.14.18.7c.22.86.63,1.4,1.22,1.62.36.13,1.1.05,2.2-.24l13.64-3.69c.52-.76.84-1.33.97-1.69.13-.36.22-.86.25-1.49.01-.31-.06-.76-.21-1.34l.54-.15Z"/>
    <path class="cls-3" d="M298.92,168.22l-.66-8.04-3.3-1.13c-.81-.28-1.41-.4-1.8-.37-.31.03-.57.2-.77.52-.21.32-.31.99-.29,1.99l-.55.05-.54-6.54.55-.05c.22.85.46,1.4.72,1.63.52.48,1.54.97,3.05,1.48l17.23,5.87.04.53-16.22,8.69c-1.3.7-2.14,1.3-2.5,1.81-.36.51-.54,1.19-.52,2.04l-.55.05-.67-8.19.55-.05c.11.82.29,1.37.54,1.64.25.27.54.39.87.36.44-.04,1.11-.3,2.02-.79l2.81-1.51ZM299.99,167.69l7.88-4.23-8.46-2.91.59,7.14Z"/>
    <path class="cls-3" d="M296.92,194.74l-.14.5-5.35-2.22,1.22-16.09.55.04-.06.78c-.07.88.16,1.53.69,1.95.3.24,1.03.41,2.18.5l13.05,1.05c1.26.1,2.06.02,2.4-.24.47-.36.73-.94.79-1.72l.06-.78.55.04-.71,9.41-.55-.05c.09-1.1.05-1.88-.12-2.34-.18-.46-.42-.78-.72-.97-.3-.19-1.06-.33-2.26-.43l-12.71-1.02c-.82-.07-1.4-.03-1.72.11-.22.11-.39.28-.5.53-.12.25-.23,1.04-.33,2.38l-.12,1.52c-.12,1.59-.09,2.72.09,3.38.18.66.54,1.28,1.08,1.86.54.58,1.42,1.18,2.63,1.81"/>
    <path class="cls-3" d="M306.43,220.7l-6.76-1.93.15-.55c1.34.19,2.46.17,3.36-.07.89-.24,1.68-.72,2.36-1.44.68-.72,1.15-1.53,1.39-2.44.28-1.03.2-1.96-.23-2.81-.43-.85-1.03-1.38-1.81-1.6-.6-.17-1.2-.11-1.8.17-.88.41-2.24,1.59-4.06,3.55-1.49,1.6-2.58,2.66-3.29,3.2-.71.54-1.47.89-2.28,1.06-.81.17-1.61.14-2.38-.08-1.48-.42-2.6-1.38-3.35-2.86-.75-1.48-.88-3.16-.38-5.01.16-.58.35-1.12.57-1.61.13-.29.48-.88,1.04-1.75.56-.88.88-1.44.95-1.7.07-.25.05-.46-.06-.65-.11-.19-.37-.38-.81-.57l.15-.55,6.7,1.91-.15.55c-1.47-.15-2.62-.1-3.43.14-.81.24-1.57.74-2.28,1.5-.7.76-1.2,1.68-1.48,2.74-.33,1.23-.28,2.3.16,3.19.44.9,1.09,1.47,1.96,1.71.48.14,1,.14,1.57,0,.56-.13,1.13-.42,1.71-.87.39-.3,1.29-1.18,2.69-2.63,1.4-1.45,2.48-2.46,3.23-3.03.75-.57,1.52-.94,2.29-1.13.77-.18,1.56-.16,2.37.07,1.4.4,2.46,1.3,3.18,2.69.72,1.4.84,2.95.38,4.65-.29,1.07-.85,2.12-1.68,3.18-.39.48-.62.84-.68,1.07-.07.26-.05.49.05.69.1.2.37.42.79.65l-.15.55Z"/>
    <path class="cls-3" d="M286.91,222.14c-.17.45-.46.77-.88.95-.42.19-.84.2-1.27.02-.43-.17-.74-.47-.92-.9-.19-.43-.2-.87-.03-1.3.17-.44.46-.76.87-.95.42-.19.84-.2,1.27-.03.44.17.75.47.93.9.18.43.19.86.02,1.3"/>
    <path class="cls-3" d="M282.93,240.38l3.66-7.14-2.19-2.78c-.54-.69-.98-1.12-1.32-1.31-.27-.15-.58-.15-.93.01-.34.16-.78.66-1.29,1.52l-.49-.26,2.97-5.81.49.26c-.26.84-.34,1.43-.25,1.78.19.69.78,1.67,1.79,2.93l11.45,14.47-.24.47-18.22-1.65c-1.46-.13-2.48-.08-3.06.15-.57.23-1.08.71-1.5,1.43l-.49-.26,3.73-7.28.49.26c-.34.75-.48,1.31-.4,1.68.07.37.25.63.54.79.39.21,1.09.36,2.12.45l3.15.28ZM284.11,240.53l8.86.79-5.61-7.13-3.25,6.34Z"/>
    <path class="cls-3" d="M273.32,248.69c-.26.4-.62.64-1.07.72-.45.08-.86-.01-1.24-.28-.38-.27-.61-.63-.69-1.09-.08-.46,0-.89.26-1.28.26-.39.61-.63,1.06-.71.45-.09.87,0,1.24.27.39.27.62.64.7,1.1.08.46,0,.88-.27,1.27"/>
    <path class="cls-3" d="M276.13,274.74l-5.38-4.63.36-.44c1.15.75,2.18,1.2,3.09,1.36.91.16,1.82.06,2.73-.31.91-.37,1.66-.91,2.25-1.63.67-.82.97-1.7.92-2.65-.05-.95-.38-1.69-1-2.23-.47-.41-1.04-.61-1.71-.61-.97,0-2.68.49-5.13,1.5-2,.82-3.42,1.33-4.29,1.51-.86.19-1.7.19-2.5,0-.81-.19-1.52-.56-2.14-1.09-1.18-1.01-1.81-2.35-1.9-4.03-.09-1.67.47-3.25,1.68-4.72.38-.46.77-.87,1.17-1.22.24-.21.79-.6,1.65-1.15.87-.56,1.38-.94,1.55-1.14.16-.2.23-.4.21-.61-.02-.21-.19-.5-.5-.86l.35-.44,5.33,4.59-.36.44c-1.28-.76-2.34-1.2-3.18-1.33-.84-.13-1.73,0-2.67.39-.95.39-1.77,1.02-2.46,1.87-.8.98-1.18,1.97-1.14,2.98.04,1,.4,1.8,1.09,2.39.38.33.86.56,1.42.67.57.12,1.2.1,1.91-.07.48-.11,1.65-.52,3.51-1.25,1.86-.72,3.25-1.18,4.16-1.38.91-.2,1.76-.21,2.54-.05.78.16,1.49.52,2.13,1.07,1.12.96,1.72,2.23,1.81,3.8.09,1.57-.42,3.04-1.53,4.4-.69.85-1.63,1.57-2.81,2.17-.55.28-.9.5-1.05.68-.17.2-.24.42-.23.65.01.23.17.54.46.93l-.35.44Z"/>
    <path class="cls-3" d="M257.76,267.76c-.33.34-.73.5-1.18.49-.46,0-.84-.18-1.16-.52-.32-.34-.48-.74-.48-1.21,0-.47.17-.87.5-1.2.33-.33.72-.49,1.18-.49.46,0,.85.17,1.17.51.33.34.49.75.48,1.22,0,.47-.18.86-.5,1.2"/>
  </g>
</svg>