<?xml version="1.0" encoding="UTF-8"?>
<svg id="Capa_1" data-name="Capa 1" xmlns="http://www.w3.org/2000/svg" viewBox="0 0 100.04 100.04">
  <defs>
    <style>
      .cls-1, .cls-2, .cls-3 {
        fill-rule: evenodd;
      }

      .cls-1, .cls-2, .cls-3, .cls-4 {
        stroke-width: 0px;
      }

      .cls-1, .cls-4 {
        fill: #fff;
      }

      .cls-2 {
        fill: #407c24;
      }

      .cls-3 {
        fill: #d1ae6d;
      }
    </style>
  </defs>
  <circle class="cls-4" cx="50.02" cy="50.02" r="50.02"/>
  <g>
    <path class="cls-3" d="M64.63,35.99c4.42,3.16,9.84,5.02,15.69,5.02v-11.25c-1.11,0-2.21-.12-3.29-.34v8.86c-5.85,0-11.27-1.86-15.69-5.02v22.96c0,11.49-9.32,20.8-20.81,20.8-4.29,0-8.27-1.3-11.58-3.52,3.78,3.86,9.05,6.26,14.88,6.26,11.49,0,20.81-9.31,20.81-20.8v-22.96h0ZM68.7,24.63c-2.26-2.47-3.74-5.66-4.06-9.18v-1.45h-3.12c.79,4.48,3.47,8.31,7.19,10.63h0ZM36.21,64.67c-1.26-1.65-1.94-3.68-1.94-5.76,0-5.25,4.26-9.51,9.52-9.51.98,0,1.95.15,2.89.45v-11.5c-1.09-.15-2.19-.21-3.29-.19v8.95c-.93-.3-1.91-.45-2.89-.45-5.26,0-9.52,4.26-9.52,9.51,0,3.71,2.13,6.93,5.24,8.5Z"/>
    <path class="cls-1" d="M61.34,33.25c4.42,3.16,9.84,5.02,15.69,5.02v-8.86c-3.27-.7-6.16-2.4-8.33-4.77-3.72-2.32-6.4-6.15-7.19-10.63h-8.2v44.94c-.02,5.24-4.27,9.48-9.52,9.48-3.09,0-5.84-1.47-7.58-3.75-3.11-1.57-5.24-4.78-5.24-8.5,0-5.25,4.26-9.51,9.52-9.51,1.01,0,1.98.16,2.89.45v-8.95c-11.29.23-20.37,9.45-20.37,20.79,0,5.66,2.26,10.79,5.93,14.54,3.31,2.22,7.3,3.52,11.58,3.52,11.49,0,20.81-9.31,20.81-20.8v-22.96Z"/>
    <path class="cls-2" d="M77.03,29.41v-2.4c-2.94,0-5.83-.82-8.33-2.38,2.21,2.42,5.12,4.09,8.33,4.77ZM61.51,14.01c-.07-.43-.13-.86-.17-1.29v-1.45h-11.32v44.94c-.02,5.24-4.27,9.48-9.52,9.48-1.54,0-2.99-.37-4.28-1.02,1.74,2.28,4.49,3.75,7.58,3.75,5.25,0,9.5-4.24,9.52-9.48V14.01h8.2ZM43.38,38.15v-2.55c-.95-.13-1.9-.19-2.86-.19-11.49,0-20.81,9.31-20.81,20.8,0,7.2,3.66,13.55,9.22,17.28-3.67-3.75-5.93-8.88-5.93-14.54,0-11.34,9.08-20.56,20.37-20.79h0Z"/>
  </g>
</svg>