<?xml version="1.0" encoding="UTF-8"?>
<svg id="Capa_1" data-name="Capa 1" xmlns="http://www.w3.org/2000/svg" xmlns:xlink="http://www.w3.org/1999/xlink" viewBox="0 0 63.45 40.99">
  <defs>
    <style>
      .cls-1 {
        fill: #3156af;
      }

      .cls-1, .cls-2, .cls-3, .cls-4 {
        stroke-width: 0px;
      }

      .cls-2 {
        fill: none;
      }

      .cls-3 {
        fill: #fd2731;
      }

      .cls-5 {
        clip-path: url(#clippath);
      }

      .cls-4 {
        fill: #fff;
      }
    </style>
    <clipPath id="clippath">
      <path class="cls-2" d="M63.45,3.61v33.77c0,1.99-1.62,3.61-3.61,3.61H3.61C1.62,40.99,0,39.38,0,37.38h0V3.61C0,1.62,1.62,0,3.61,0h56.24c1.99,0,3.61,1.62,3.61,3.61Z"/>
    </clipPath>
  </defs>
  <g class="cls-5">
    <g>
      <g>
        <rect class="cls-4" width="78.3" height="40.99"/>
        <g>
          <rect class="cls-3" width="78.3" height="3.15"/>
          <rect class="cls-3" y="6.52" width="78.3" height="3.15"/>
          <rect class="cls-3" y="12.72" width="78.3" height="3.15"/>
          <rect class="cls-3" y="18.92" width="78.3" height="3.15"/>
          <rect class="cls-3" y="25.44" width="78.3" height="3.15"/>
          <rect class="cls-3" y="31.64" width="78.3" height="3.15"/>
          <rect class="cls-3" y="37.84" width="78.3" height="3.15"/>
        </g>
      </g>
      <rect class="cls-1" width="32.06" height="22.07"/>
      <g>
        <g>
          <polygon class="cls-4" points="2.73 .58 3.06 1.24 3.78 1.34 3.26 1.85 3.38 2.58 2.73 2.23 2.08 2.58 2.21 1.85 1.68 1.34 2.41 1.24 2.73 .58"/>
          <polygon class="cls-4" points="7.96 .58 8.29 1.24 9.01 1.34 8.49 1.85 8.61 2.58 7.96 2.23 7.31 2.58 7.44 1.85 6.91 1.34 7.64 1.24 7.96 .58"/>
          <polygon class="cls-4" points="13.19 .58 13.52 1.24 14.24 1.34 13.72 1.85 13.84 2.58 13.19 2.23 12.54 2.58 12.67 1.85 12.14 1.34 12.87 1.24 13.19 .58"/>
          <polygon class="cls-4" points="18.42 .58 18.74 1.24 19.47 1.34 18.94 1.85 19.07 2.58 18.42 2.23 17.77 2.58 17.89 1.85 17.37 1.34 18.1 1.24 18.42 .58"/>
          <polygon class="cls-4" points="23.65 .58 23.97 1.24 24.7 1.34 24.17 1.85 24.3 2.58 23.65 2.23 23 2.58 23.12 1.85 22.6 1.34 23.32 1.24 23.65 .58"/>
          <polygon class="cls-4" points="28.88 .58 29.2 1.24 29.93 1.34 29.4 1.85 29.53 2.58 28.88 2.23 28.23 2.58 28.35 1.85 27.83 1.34 28.55 1.24 28.88 .58"/>
        </g>
        <g>
          <polygon class="cls-4" points="5.23 3.15 5.55 3.81 6.28 3.92 5.75 4.43 5.88 5.15 5.23 4.81 4.58 5.15 4.7 4.43 4.18 3.92 4.9 3.81 5.23 3.15"/>
          <polygon class="cls-4" points="10.46 3.15 10.78 3.81 11.51 3.92 10.98 4.43 11.11 5.15 10.46 4.81 9.81 5.15 9.93 4.43 9.41 3.92 10.13 3.81 10.46 3.15"/>
          <polygon class="cls-4" points="15.69 3.15 16.01 3.81 16.74 3.92 16.21 4.43 16.34 5.15 15.69 4.81 15.04 5.15 15.16 4.43 14.64 3.92 15.36 3.81 15.69 3.15"/>
          <polygon class="cls-4" points="20.92 3.15 21.24 3.81 21.97 3.92 21.44 4.43 21.56 5.15 20.92 4.81 20.27 5.15 20.39 4.43 19.87 3.92 20.59 3.81 20.92 3.15"/>
          <polygon class="cls-4" points="26.15 3.15 26.47 3.81 27.2 3.92 26.67 4.43 26.79 5.15 26.15 4.81 25.5 5.15 25.62 4.43 25.1 3.92 25.82 3.81 26.15 3.15"/>
        </g>
        <g>
          <polygon class="cls-4" points="2.73 5.31 3.06 5.97 3.78 6.07 3.26 6.58 3.38 7.3 2.73 6.96 2.08 7.3 2.21 6.58 1.68 6.07 2.41 5.97 2.73 5.31"/>
          <polygon class="cls-4" points="7.96 5.31 8.29 5.97 9.01 6.07 8.49 6.58 8.61 7.3 7.96 6.96 7.31 7.3 7.44 6.58 6.91 6.07 7.64 5.97 7.96 5.31"/>
          <polygon class="cls-4" points="13.19 5.31 13.52 5.97 14.24 6.07 13.72 6.58 13.84 7.3 13.19 6.96 12.54 7.3 12.67 6.58 12.14 6.07 12.87 5.97 13.19 5.31"/>
          <polygon class="cls-4" points="18.42 5.31 18.74 5.97 19.47 6.07 18.94 6.58 19.07 7.3 18.42 6.96 17.77 7.3 17.89 6.58 17.37 6.07 18.1 5.97 18.42 5.31"/>
          <polygon class="cls-4" points="23.65 5.31 23.97 5.97 24.7 6.07 24.17 6.58 24.3 7.3 23.65 6.96 23 7.3 23.12 6.58 22.6 6.07 23.32 5.97 23.65 5.31"/>
          <polygon class="cls-4" points="28.88 5.31 29.2 5.97 29.93 6.07 29.4 6.58 29.53 7.3 28.88 6.96 28.23 7.3 28.35 6.58 27.83 6.07 28.55 5.97 28.88 5.31"/>
        </g>
        <g>
          <polygon class="cls-4" points="5.23 7.88 5.55 8.54 6.28 8.65 5.75 9.16 5.88 9.88 5.23 9.54 4.58 9.88 4.7 9.16 4.18 8.65 4.9 8.54 5.23 7.88"/>
          <polygon class="cls-4" points="10.46 7.88 10.78 8.54 11.51 8.65 10.98 9.16 11.11 9.88 10.46 9.54 9.81 9.88 9.93 9.16 9.41 8.65 10.13 8.54 10.46 7.88"/>
          <polygon class="cls-4" points="15.69 7.88 16.01 8.54 16.74 8.65 16.21 9.16 16.34 9.88 15.69 9.54 15.04 9.88 15.16 9.16 14.64 8.65 15.36 8.54 15.69 7.88"/>
          <polygon class="cls-4" points="20.92 7.88 21.24 8.54 21.97 8.65 21.44 9.16 21.56 9.88 20.92 9.54 20.27 9.88 20.39 9.16 19.87 8.65 20.59 8.54 20.92 7.88"/>
          <polygon class="cls-4" points="26.15 7.88 26.47 8.54 27.2 8.65 26.67 9.16 26.79 9.88 26.15 9.54 25.5 9.88 25.62 9.16 25.1 8.65 25.82 8.54 26.15 7.88"/>
        </g>
        <g>
          <polygon class="cls-4" points="2.73 10.04 3.06 10.7 3.78 10.8 3.26 11.31 3.38 12.03 2.73 11.69 2.08 12.03 2.21 11.31 1.68 10.8 2.41 10.7 2.73 10.04"/>
          <polygon class="cls-4" points="7.96 10.04 8.29 10.7 9.01 10.8 8.49 11.31 8.61 12.03 7.96 11.69 7.31 12.03 7.44 11.31 6.91 10.8 7.64 10.7 7.96 10.04"/>
          <polygon class="cls-4" points="13.19 10.04 13.52 10.7 14.24 10.8 13.72 11.31 13.84 12.03 13.19 11.69 12.54 12.03 12.67 11.31 12.14 10.8 12.87 10.7 13.19 10.04"/>
          <polygon class="cls-4" points="18.42 10.04 18.74 10.7 19.47 10.8 18.94 11.31 19.07 12.03 18.42 11.69 17.77 12.03 17.89 11.31 17.37 10.8 18.1 10.7 18.42 10.04"/>
          <polygon class="cls-4" points="23.65 10.04 23.97 10.7 24.7 10.8 24.17 11.31 24.3 12.03 23.65 11.69 23 12.03 23.12 11.31 22.6 10.8 23.32 10.7 23.65 10.04"/>
          <polygon class="cls-4" points="28.88 10.04 29.2 10.7 29.93 10.8 29.4 11.31 29.53 12.03 28.88 11.69 28.23 12.03 28.35 11.31 27.83 10.8 28.55 10.7 28.88 10.04"/>
        </g>
        <g>
          <polygon class="cls-4" points="5.23 12.61 5.55 13.27 6.28 13.38 5.75 13.89 5.88 14.61 5.23 14.27 4.58 14.61 4.7 13.89 4.18 13.38 4.9 13.27 5.23 12.61"/>
          <polygon class="cls-4" points="10.46 12.61 10.78 13.27 11.51 13.38 10.98 13.89 11.11 14.61 10.46 14.27 9.81 14.61 9.93 13.89 9.41 13.38 10.13 13.27 10.46 12.61"/>
          <polygon class="cls-4" points="15.69 12.61 16.01 13.27 16.74 13.38 16.21 13.89 16.34 14.61 15.69 14.27 15.04 14.61 15.16 13.89 14.64 13.38 15.36 13.27 15.69 12.61"/>
          <polygon class="cls-4" points="20.92 12.61 21.24 13.27 21.97 13.38 21.44 13.89 21.56 14.61 20.92 14.27 20.27 14.61 20.39 13.89 19.87 13.38 20.59 13.27 20.92 12.61"/>
          <polygon class="cls-4" points="26.15 12.61 26.47 13.27 27.2 13.38 26.67 13.89 26.79 14.61 26.15 14.27 25.5 14.61 25.62 13.89 25.1 13.38 25.82 13.27 26.15 12.61"/>
        </g>
        <g>
          <polygon class="cls-4" points="2.73 14.71 3.06 15.37 3.78 15.48 3.26 15.99 3.38 16.71 2.73 16.37 2.08 16.71 2.21 15.99 1.68 15.48 2.41 15.37 2.73 14.71"/>
          <polygon class="cls-4" points="7.96 14.71 8.29 15.37 9.01 15.48 8.49 15.99 8.61 16.71 7.96 16.37 7.31 16.71 7.44 15.99 6.91 15.48 7.64 15.37 7.96 14.71"/>
          <polygon class="cls-4" points="13.19 14.71 13.52 15.37 14.24 15.48 13.72 15.99 13.84 16.71 13.19 16.37 12.54 16.71 12.67 15.99 12.14 15.48 12.87 15.37 13.19 14.71"/>
          <polygon class="cls-4" points="18.42 14.71 18.74 15.37 19.47 15.48 18.94 15.99 19.07 16.71 18.42 16.37 17.77 16.71 17.89 15.99 17.37 15.48 18.1 15.37 18.42 14.71"/>
          <polygon class="cls-4" points="23.65 14.71 23.97 15.37 24.7 15.48 24.17 15.99 24.3 16.71 23.65 16.37 23 16.71 23.12 15.99 22.6 15.48 23.32 15.37 23.65 14.71"/>
          <polygon class="cls-4" points="28.88 14.71 29.2 15.37 29.93 15.48 29.4 15.99 29.53 16.71 28.88 16.37 28.23 16.71 28.35 15.99 27.83 15.48 28.55 15.37 28.88 14.71"/>
        </g>
        <g>
          <polygon class="cls-4" points="5.23 17.29 5.55 17.95 6.28 18.05 5.75 18.56 5.88 19.29 5.23 18.95 4.58 19.29 4.7 18.56 4.18 18.05 4.9 17.95 5.23 17.29"/>
          <polygon class="cls-4" points="10.46 17.29 10.78 17.95 11.51 18.05 10.98 18.56 11.11 19.29 10.46 18.95 9.81 19.29 9.93 18.56 9.41 18.05 10.13 17.95 10.46 17.29"/>
          <polygon class="cls-4" points="15.69 17.29 16.01 17.95 16.74 18.05 16.21 18.56 16.34 19.29 15.69 18.95 15.04 19.29 15.16 18.56 14.64 18.05 15.36 17.95 15.69 17.29"/>
          <polygon class="cls-4" points="20.92 17.29 21.24 17.95 21.97 18.05 21.44 18.56 21.56 19.29 20.92 18.95 20.27 19.29 20.39 18.56 19.87 18.05 20.59 17.95 20.92 17.29"/>
          <polygon class="cls-4" points="26.15 17.29 26.47 17.95 27.2 18.05 26.67 18.56 26.79 19.29 26.15 18.95 25.5 19.29 25.62 18.56 25.1 18.05 25.82 17.95 26.15 17.29"/>
        </g>
        <g>
          <polygon class="cls-4" points="2.73 19.5 3.06 20.15 3.78 20.26 3.26 20.77 3.38 21.49 2.73 21.15 2.08 21.49 2.21 20.77 1.68 20.26 2.41 20.15 2.73 19.5"/>
          <polygon class="cls-4" points="7.96 19.5 8.29 20.15 9.01 20.26 8.49 20.77 8.61 21.49 7.96 21.15 7.31 21.49 7.44 20.77 6.91 20.26 7.64 20.15 7.96 19.5"/>
          <polygon class="cls-4" points="13.19 19.5 13.52 20.15 14.24 20.26 13.72 20.77 13.84 21.49 13.19 21.15 12.54 21.49 12.67 20.77 12.14 20.26 12.87 20.15 13.19 19.5"/>
          <polygon class="cls-4" points="18.42 19.5 18.74 20.15 19.47 20.26 18.94 20.77 19.07 21.49 18.42 21.15 17.77 21.49 17.89 20.77 17.37 20.26 18.1 20.15 18.42 19.5"/>
          <polygon class="cls-4" points="23.65 19.5 23.97 20.15 24.7 20.26 24.17 20.77 24.3 21.49 23.65 21.15 23 21.49 23.12 20.77 22.6 20.26 23.32 20.15 23.65 19.5"/>
          <polygon class="cls-4" points="28.88 19.5 29.2 20.15 29.93 20.26 29.4 20.77 29.53 21.49 28.88 21.15 28.23 21.49 28.35 20.77 27.83 20.26 28.55 20.15 28.88 19.5"/>
        </g>
      </g>
    </g>
  </g>
</svg>